# xmcd CD database file
#
# Track frame offsets:
#	150
#	21830
#	43153
#	60335
#	79213
#	98085
#	111706
#	123187
#	137799
#	151735
#	165093
#	179516
#	194286
#	208691
#	224816
#
# Disc length: 3216 seconds
#
# Revision: 1
# Processed by: cddbd v1.5.1PL2 Copyright (c) Steve Scherf et al.
# Submitted via: CDex 1.51
#
DISCID=d30c8e0f
DTITLE=Jay Jay Johnson - Featuring, CD 3
DYEAR=1900
DGENRE=Jazz
TTITLE0=Get Happy
TTITLE1=It Could Happen To You
TTITLE2=Capri - Alternate Take
TTITLE3=Turnpike - Alternate Take
TTITLE4=Get Happy - Alternate Take
TTITLE5=Don't Argue
TTITLE6=How Long Has This Been Going On
TTITLE7=Riviera
TTITLE8=Dinner For One
TTITLE9=Hip Bones
TTITLE10=Wind Bag
TTITLE11=We'll Be Together Again
TTITLE12=Bag's Groove
TTITLE13=Too Marvellous For Words
TTITLE14=Jay
EXTD=
EXTT0=
EXTT1=
EXTT2=
EXTT3=
EXTT4=
EXTT5=
EXTT6=
EXTT7=
EXTT8=
EXTT9=
EXTT10=
EXTT11=
EXTT12=
EXTT13=
EXTT14=
PLAYORDER=
